<?xml version="1.0" encoding="utf-8"?>
<!-- Generator: Adobe Illustrator 21.0.2, SVG Export Plug-In . SVG Version: 6.00 Build 0)  -->
<svg version="1.1" id="Calque_1" xmlns="http://www.w3.org/2000/svg" xmlns:xlink="http://www.w3.org/1999/xlink" x="0px" y="0px"
	 viewBox="0 0 2000 2000" style="enable-background:new 0 0 2000 2000;" xml:space="preserve">
<style type="text/css">
	.st0{fill:#ED1C24;}
</style>
<g>
	<path class="st0" d="M1517.2,713h-311.9c-6.7-6.8-13.8-13.3-21.2-19.4l143.5-143.5c21-21.6,20.5-56.1-1.1-77
		c-20.9-20.3-54.2-20.6-75.4-0.6l-167.7,167.7c-54-16.2-111.6-16.2-165.6,0L750.3,472.5c-21.4-21.7-56.4-21.9-78-0.4
		c-21.7,21.4-21.9,56.4-0.4,78L816,694.3c-7.3,5.9-14.2,12.2-20.8,18.7H481.7c-92,0-166.8,74.8-166.8,166.8v500.3
		c0,92,74.8,166.8,166.8,166.8h1035.5c92,0,166.8-74.8,166.8-166.8V879.8C1684,787.8,1609.2,713,1517.2,713z M1601.2,1380.2
		c0,46.3-37.7,84-84,84H481.7c-46.3,0-84-37.7-84-84V879.8c0-46.3,37.7-84,84-84h1035.5c46.3,0,84,37.7,84,84V1380.2z"/>
	<path class="st0" d="M645.8,1094.4c45.8,0,64.3,36.5,68.8,47.7l5,12.2l104.8-11.7l-5.1-19.5c-16.4-62.9-71-130.1-175-130.1
		c-105.3,0-181.7,79.6-181.7,189.2s75.8,189.2,180.2,189.2c105.9,0,160.3-67.8,176-131.2l4.8-19.4l-103.9-11.1l-4.8,12.4
		c-12.7,32.7-34.7,47.9-69.2,47.9c-35.6,0-73.7-23.1-73.7-87.8C572.1,1141.7,591.4,1094.4,645.8,1094.4z"/>
	<path class="st0" d="M1077.4,1219.6c0,32.5-20.8,52-55.8,52c-35.5,0-56.7-19.4-56.7-52V998.7H858.4v219.4c0,45,16,83.6,46.3,111.6
		c29.6,27.3,70.1,41.8,116.9,41.8c96.8,0,161.8-61.6,161.8-153.3V998.7h-106.1V1219.6z"/>
	<polygon class="st0" points="1529.2,960.2 1505.2,867.5 1198.2,947 1216.4,1017.2 1216.4,1098.2 1324,1098.2 1324,1365.8 
		1430.1,1365.8 1430.1,1098.2 1536.3,1098.2 1536.3,998.7 1380.2,998.7 	"/>
</g>
</svg>
